<svg width="40" height="40" viewBox="0 0 40 40" fill="none" xmlns="http://www.w3.org/2000/svg">
<g opacity="0.5" clip-path="url(#clip0_3402_7310)">
<path d="M30.5469 1.17188V2.34375H33.2578H35.9766L32.6562 5.67188C30.8281 7.5 28.2891 10.0156 27.0078 11.2656L24.6797 13.5469L20 8.86719L15.3203 4.1875L8.89062 10.5859C5.35156 14.1016 1.98438 17.4453 1.40625 18.0234L0.351562 19.0625L1.19531 19.8984L2.03125 20.7422L7.25 15.5469C10.1172 12.6875 13.1016 9.71875 13.8906 8.94531L15.3125 7.53906L19.9922 12.2188L24.6797 16.9062L31.1484 10.4688L37.6172 4.03906L37.6406 6.70312L37.6562 9.375H38.8281H40V4.6875V0H35.2734H30.5469V1.17188Z" fill="white"/>
<path d="M30.5469 25.8594V37.6562H29.375H28.2031V30.5469V23.4375H24.6875H21.1719V30.5469V37.6562H20H18.8281V28.2031V18.75H15.3125H11.7969V28.2031V37.6562H10.625H9.45312V31.7188V25.7812H5.89844H2.34375V31.7188V37.6562H1.17188H0V38.8281V40H20H40V38.8281V37.6562H38.8281H37.6562V25.8594V14.0625H34.1016H30.5469V25.8594Z" fill="white"/>
</g>
<defs>
<clipPath id="clip0_3402_7310">
<rect width="40" height="40" fill="white"/>
</clipPath>
</defs>
</svg>
