<svg width="40" height="40" viewBox="0 0 40 40" fill="none" xmlns="http://www.w3.org/2000/svg">
<g opacity="0.5">
<path d="M26.6665 18.333C29.4332 18.333 31.6498 16.0997 31.6498 13.333C31.6498 10.5663 29.4332 8.33301 26.6665 8.33301C23.8998 8.33301 21.6665 10.5663 21.6665 13.333C21.6665 16.0997 23.8998 18.333 26.6665 18.333ZM13.3332 18.333C16.0998 18.333 18.3165 16.0997 18.3165 13.333C18.3165 10.5663 16.0998 8.33301 13.3332 8.33301C10.5665 8.33301 8.33317 10.5663 8.33317 13.333C8.33317 16.0997 10.5665 18.333 13.3332 18.333ZM13.3332 21.6663C9.44984 21.6663 1.6665 23.6163 1.6665 27.4997V31.6663H24.9998V27.4997C24.9998 23.6163 17.2165 21.6663 13.3332 21.6663ZM26.6665 21.6663C26.1832 21.6663 25.6332 21.6997 25.0498 21.7497C26.9832 23.1497 28.3332 25.033 28.3332 27.4997V31.6663H38.3332V27.4997C38.3332 23.6163 30.5498 21.6663 26.6665 21.6663Z" fill="white"/>
</g>
</svg>
