<svg width="40" height="40" viewBox="0 0 40 40" fill="none" xmlns="http://www.w3.org/2000/svg">
<g opacity="0.5">
<path fill-rule="evenodd" clip-rule="evenodd" d="M9.31016 7.64366C8.3335 8.62033 8.3335 10.1903 8.3335 13.3337V28.3337C8.3335 31.477 8.3335 33.047 9.31016 34.0237C10.2868 35.0003 11.8568 35.0003 15.0002 35.0003H25.0002C28.1435 35.0003 29.7135 35.0003 30.6902 34.0237C31.6668 33.047 31.6668 31.477 31.6668 28.3337V13.3337C31.6668 10.1903 31.6668 8.62033 30.6902 7.64366C29.7135 6.66699 28.1435 6.66699 25.0002 6.66699H15.0002C11.8568 6.66699 10.2868 6.66699 9.31016 7.64366ZM15.0002 13.3337C14.5581 13.3337 14.1342 13.5093 13.8217 13.8218C13.5091 14.1344 13.3335 14.5583 13.3335 15.0003C13.3335 15.4424 13.5091 15.8663 13.8217 16.1788C14.1342 16.4914 14.5581 16.667 15.0002 16.667H25.0002C25.4422 16.667 25.8661 16.4914 26.1787 16.1788C26.4912 15.8663 26.6668 15.4424 26.6668 15.0003C26.6668 14.5583 26.4912 14.1344 26.1787 13.8218C25.8661 13.5093 25.4422 13.3337 25.0002 13.3337H15.0002ZM15.0002 20.0003C14.5581 20.0003 14.1342 20.1759 13.8217 20.4885C13.5091 20.801 13.3335 21.225 13.3335 21.667C13.3335 22.109 13.5091 22.5329 13.8217 22.8455C14.1342 23.1581 14.5581 23.3337 15.0002 23.3337H25.0002C25.4422 23.3337 25.8661 23.1581 26.1787 22.8455C26.4912 22.5329 26.6668 22.109 26.6668 21.667C26.6668 21.225 26.4912 20.801 26.1787 20.4885C25.8661 20.1759 25.4422 20.0003 25.0002 20.0003H15.0002ZM15.0002 26.667C14.5581 26.667 14.1342 26.8426 13.8217 27.1551C13.5091 27.4677 13.3335 27.8916 13.3335 28.3337C13.3335 28.7757 13.5091 29.1996 13.8217 29.5122C14.1342 29.8247 14.5581 30.0003 15.0002 30.0003H21.6668C22.1089 30.0003 22.5328 29.8247 22.8453 29.5122C23.1579 29.1996 23.3335 28.7757 23.3335 28.3337C23.3335 27.8916 23.1579 27.4677 22.8453 27.1551C22.5328 26.8426 22.1089 26.667 21.6668 26.667H15.0002Z" fill="white"/>
</g>
</svg>
