<svg width="40" height="40" viewBox="0 0 40 40" fill="none" xmlns="http://www.w3.org/2000/svg">
<g opacity="0.5">
<path fill-rule="evenodd" clip-rule="evenodd" d="M6.58484 7.09727H17.6968C18.0199 7.09727 18.2817 7.3591 18.2817 7.68212V18.7941C18.2817 19.1171 18.0199 19.379 17.6968 19.379H6.58484C6.26183 19.379 6 19.1171 6 18.7941V7.68212C6 7.3591 6.26183 7.09727 6.58484 7.09727ZM27.212 6.17129L33.8287 12.788C34.0571 13.0164 34.0571 13.3867 33.8287 13.6151L27.212 20.2318C26.9836 20.4602 26.6133 20.4602 26.3849 20.2318L19.7682 13.6151C19.5398 13.3867 19.5398 13.0164 19.7682 12.788L26.3849 6.17129C26.6133 5.9429 26.9836 5.9429 27.212 6.17129ZM6.58484 21.7183H17.6968C18.0199 21.7183 18.2817 21.9801 18.2817 22.3032V33.4152C18.2817 33.7382 18.0199 34 17.6968 34H6.58484C6.26183 34 6 33.7382 6 33.4152V22.3032C6 21.9801 6.26183 21.7183 6.58484 21.7183ZM21.2059 21.7183H32.3179C32.6409 21.7183 32.9027 21.9801 32.9027 22.3032V33.4152C32.9027 33.7382 32.6409 34 32.3179 34H21.2059C20.8829 34 20.621 33.7382 20.621 33.4152V22.3032C20.621 21.9801 20.8829 21.7183 21.2059 21.7183Z" fill="white"/>
</g>
</svg>
