<svg width="40" height="40" viewBox="0 0 40 40" fill="none" xmlns="http://www.w3.org/2000/svg">
<g opacity="0.5">
<path d="M21.3869 3C21.9014 3 22.3616 3.32025 22.5349 3.79974L23.7704 7.22445C24.2131 7.3347 24.5929 7.44495 24.9149 7.56045C25.2666 7.68645 25.7199 7.87719 26.2798 8.13794L29.1568 6.61546C29.3916 6.49105 29.6605 6.44614 29.923 6.48747C30.1855 6.52881 30.4276 6.65415 30.6128 6.84471L33.1433 9.46092C33.4793 9.80917 33.5738 10.3184 33.3848 10.7629L32.0355 13.9251C32.2595 14.3364 32.438 14.6881 32.5745 14.9821C32.7215 15.3024 32.9035 15.7433 33.1205 16.3121L36.2652 17.6596C36.7377 17.8608 37.03 18.3333 36.9985 18.8391L36.7675 22.4703C36.7517 22.7062 36.667 22.9322 36.5239 23.1205C36.3808 23.3087 36.1856 23.4507 35.9625 23.529L32.984 24.5877C32.8983 24.999 32.809 25.3507 32.7145 25.6482C32.5621 26.1077 32.3881 26.5597 32.193 27.0027L33.6893 30.3102C33.7949 30.5426 33.8233 30.8027 33.7704 31.0524C33.7175 31.3021 33.586 31.5283 33.3953 31.6979L30.5498 34.2389C30.3624 34.4055 30.1286 34.5109 29.8796 34.5409C29.6306 34.5709 29.3784 34.5242 29.1568 34.4069L26.2238 32.8529C25.765 33.0959 25.2916 33.3103 24.8064 33.4951L23.5254 33.9746L22.3879 37.1246C22.3036 37.3553 22.1515 37.5551 21.9517 37.6978C21.7518 37.8405 21.5135 37.9195 21.2679 37.9243L17.9429 37.9996C17.6909 38.0062 17.443 37.9345 17.2333 37.7944C17.0237 37.6544 16.8626 37.4527 16.7722 37.2173L15.4317 33.6701C14.9744 33.5138 14.5215 33.3446 14.0737 33.1626C13.7075 33.0041 13.3468 32.8331 12.9923 32.6499L9.6673 34.0709C9.44822 34.1643 9.20668 34.1921 8.97211 34.1508C8.73753 34.1095 8.52002 34.0008 8.34607 33.8381L5.8856 31.5299C5.70241 31.3588 5.57766 31.1344 5.52898 30.8885C5.4803 30.6426 5.51017 30.3877 5.61435 30.1597L7.04408 27.0447C6.85394 26.6758 6.67765 26.2998 6.51559 25.9177C6.32642 25.45 6.15134 24.9767 5.99059 24.4985L2.85813 23.5448C2.60351 23.4678 2.38143 23.3089 2.22637 23.0928C2.07132 22.8767 1.99197 22.6154 2.00064 22.3495L2.12314 18.9878C2.13186 18.7685 2.20038 18.5557 2.32129 18.3725C2.4422 18.1893 2.61089 18.0426 2.80913 17.9483L6.09559 16.3698C6.24784 15.8116 6.38084 15.3776 6.49809 15.0609C6.66318 14.6378 6.84652 14.2221 7.04758 13.8149L5.6231 10.8049C5.515 10.5763 5.48217 10.3194 5.52933 10.0709C5.5765 9.82253 5.70123 9.59547 5.8856 9.42243L8.34257 7.10195C8.5148 6.93951 8.73031 6.83029 8.96316 6.78745C9.196 6.7446 9.43627 6.76996 9.65505 6.86046L12.9765 8.23244C13.344 7.98744 13.6765 7.7897 13.9775 7.63045C14.3362 7.4397 14.8157 7.2402 15.4195 7.02495L16.5745 3.80324C16.6599 3.56747 16.8159 3.36379 17.0214 3.22003C17.2269 3.07627 17.4717 2.99943 17.7225 3H21.3869ZM19.5424 15.2831C16.6252 15.2831 14.261 17.6193 14.261 20.5033C14.261 23.3873 16.6252 25.7252 19.5424 25.7252C22.4579 25.7252 24.8221 23.3873 24.8221 20.5033C24.8221 17.6193 22.4596 15.2831 19.5424 15.2831Z" fill="white"/>
</g>
</svg>
